<?xml version="1.0" encoding="UTF-8"?>
<svg width="24px" height="24px" viewBox="0 0 24 24" version="1.1" xmlns="http://www.w3.org/2000/svg" xmlns:xlink="http://www.w3.org/1999/xlink">
    <title>F93EAF7E-FE97-4ECF-8D4B-2A60D4F534A1</title>
    <g id="OPGGDesignGuide" stroke="none" stroke-width="1" fill="none" fill-rule="evenodd">
        <g id="GUIDE_03Icon" transform="translate(-512.000000, -324.000000)" fill="#9AA4AF" fill-rule="nonzero">
            <g id="01-Icon-/-icon_question" transform="translate(512.000000, 324.000000)">
                <path d="M12,2 C17.5228475,2 22,6.4771525 22,12 C22,17.5228475 17.5228475,22 12,22 C6.4771525,22 2,17.5228475 2,12 C2,6.4771525 6.4771525,2 12,2 Z M12,3.5 C7.30557963,3.5 3.5,7.30557963 3.5,12 C3.5,16.6944204 7.30557963,20.5 12,20.5 C16.6944204,20.5 20.5,16.6944204 20.5,12 C20.5,7.30557963 16.6944204,3.5 12,3.5 Z M12.9892578,15.1655273 L12.9892578,17 L11.0976562,17 L11.0976562,15.1655273 L12.9892578,15.1655273 Z M11.8847656,7.54833984 C12.8411506,7.54833984 13.6356576,7.77685318 14.2683105,8.23388672 C14.9009634,8.69092025 15.2172852,9.36799682 15.2172852,10.2651367 C15.2172852,10.8152697 15.079754,11.278644 14.8046875,11.6552734 C14.6438794,11.8837902 14.3349632,12.1757795 13.8779297,12.53125 L13.4272461,12.8803711 C13.1818022,13.0708017 13.0188806,13.2929675 12.9384766,13.546875 C12.8876951,13.7076831 12.8601888,13.9573551 12.855957,14.2958984 L11.1420898,14.2958984 C11.1674806,13.5807256 11.2351883,13.0866713 11.3452148,12.8137207 C11.4552414,12.5407701 11.7387672,12.2265643 12.1958008,11.8710938 L12.6591797,11.5092773 C12.8115242,11.395019 12.9342443,11.270183 13.0273438,11.1347656 C13.1966154,10.9020171 13.28125,10.6459975 13.28125,10.3666992 C13.28125,10.045083 13.187094,9.75203583 12.9987793,9.48754883 C12.8104646,9.22306183 12.4666366,9.09082031 11.9672852,9.09082031 C11.4763973,9.09082031 11.1283376,9.25374186 10.9230957,9.57958984 C10.7178538,9.90543783 10.6152344,10.2439761 10.6152344,10.5952148 L8.78076172,10.5952148 C8.83154322,9.38915413 9.25260021,8.53434497 10.0439453,8.03076172 C10.5432968,7.70914553 11.1568974,7.54833984 11.8847656,7.54833984 Z" id="Combined-Shape"></path>
            </g>
        </g>
    </g>
</svg>